<?xml version="1.0" encoding="utf-8"?>
<!-- Generator: Adobe Illustrator 18.1.1, SVG Export Plug-In . SVG Version: 6.00 Build 0)  -->
<svg version="1.1" id="Layer_1" xmlns="http://www.w3.org/2000/svg" xmlns:xlink="http://www.w3.org/1999/xlink" x="0px" y="0px"
	 viewBox="0 0 5283.4 1436.3" enable-background="new 0 0 5283.4 1436.3" xml:space="preserve">
<g>
	<g>
		<path fill-rule="evenodd" clip-rule="evenodd" fill="#FFFFFF" d="M258.4,1234.7c46-20.2,481.9-164.2,882.6-188.1
			c8.7-33.5,52.7-145.9,60.7-176.5c-415.9,29.4-754,152.7-889.8,215.2L258.4,1234.7L258.4,1234.7z"/>
		<path fill-rule="evenodd" clip-rule="evenodd" fill="#FFFFFF" d="M327.7,1041.9c127.5-130.3,586-550.4,586-550.4
			C675.2,546.7,426.2,621.8,337.2,662L203.4,798.7C315.2,775,351.3,770.3,433,758.4L327.7,1041.9L327.7,1041.9z"/>
	</g>
	<g>
		<path fill-rule="evenodd" clip-rule="evenodd" fill="#FFFFFF" d="M909.3,209.8c-72,33.2-279,191.9-390.4,275.3
			c135.6-44.9,461.7-116.8,628.6-120.7C1095.3,327.9,948.8,229,909.3,209.8L909.3,209.8z"/>
		<path fill-rule="evenodd" clip-rule="evenodd" fill="#FFFFFF" d="M1178.6,386.1c0,0-404.6,403.7-467.9,461.6
			c123-44.2,375.2-96.6,535.2-106.1c18.6-56.4,38.2-97.2,38.2-97.2l214.2-21.2C1498.2,623.1,1335.5,492.5,1178.6,386.1L1178.6,386.1
			z"/>
		<path fill-rule="evenodd" clip-rule="evenodd" fill="#FFFFFF" d="M2096.5,1181.9h-570.2v-128.7L1871,461.2
			c25-42,38.4-74.6,38.4-74.6s-20-1.6-75.2-1.6h-281.1l40.8-152.4h546.5v132.7l-347.3,607.7c-19.7,32.8-34.1,59.4-34.1,59.4
			s40.6-0.3,77.4-0.3h307.4L2096.5,1181.9L2096.5,1181.9z M2352.3,513.6c-59.2,0-107.7-48.6-107.7-109
			c0-60.4,49.9-109.1,110.3-109.1c59.2,0,106.4,48.6,106.4,109.1C2461.3,465,2412.8,513.6,2352.3,513.6L2352.3,513.6z
			 M2264.3,1183.3l0.3-591.5l175.4-39.3l0.4,630.8H2264.3L2264.3,1183.3z M2613.5,1181.5h180l-1.3-971.6l-180,40.7L2613.5,1181.5
			L2613.5,1181.5z M2963.2,1181.5h180l-1.2-971.6L2962,250.5L2963.2,1181.5L2963.2,1181.5z M4653,1181.9h-161.6l-60.4-231.1
			c-14.4-53.9-30.2-118.3-38-163c-5.2-31.5-6.6-40.7-10.6-67c-4,28.9-5.3,38.1-15.8,86.6c-13.1,57.9-42.1,173.5-57.8,236.5
			l-34.1,137.9h-164.2l-187.3-672.6h179.7l53.6,251c17,77.5,38,208.9,38,208.9s17.1-119.6,48.7-233.9l63-225.9h165.5l53.9,222
			c30.2,124.8,49.9,237.8,49.9,237.8c4-28.9,18.4-134,36.8-219.4l51.2-240.4h181.3L4653,1181.9L4653,1181.9z M3657.4,661.7
			c-17.1-22.3-44.6-35.4-76.2-35.4c-42.1,0-76.2,26.3-90.7,68.3c-11.8,35.5-18.4,82.7-18.4,149.8c0,77.5,7.9,135.3,22.3,169.5
			c15.8,36.8,55.2,55.2,89.3,55.2c76.2,0,109-68.3,109-227.3C3692.8,751,3681,691.9,3657.4,661.7L3657.4,661.7z M3800.5,1103.1
			c-51.2,57.8-118.2,93.2-222,93.2c-182.6,0-302.1-136.6-302.1-348c0-211.5,120.9-352.1,302.1-352.1c95.9,0,170.8,32.8,228.6,101.2
			c53.9,63.1,77.5,136.6,77.5,245.6C3884.6,958.6,3858.4,1037.4,3800.5,1103.1L3800.5,1103.1z"/>
		<path fill="#FFFFFF" d="M4987.7,377.6v30.1h8.2c8.2,0,12.5-1.1,15.3-4.1c2.7-2.5,4.3-6.6,4.3-11.4c0-9.6-5.2-14.6-19.2-14.6
			H4987.7L4987.7,377.6z M5018.2,459.6l-8.2-14.8c-6.6-11.6-10.9-18-16.1-23.2c-1.9-1.8-3.2-2.8-6.2-3v41h-15.5v-94.8h28.9
			c21.2,0,30.7,12.3,30.7,27.1c0,14.6-9.3,26-23.5,26c3.5,1.8,9.6,10.9,14.6,18.9l13.9,22.8H5018.2L5018.2,459.6z M4999.3,341.6
			c-37.7,0-67.4,31-67.4,70.9c0,39.6,29.8,71.1,67.4,71.1c37.3,0,67.6-31.4,67.6-71.1C5066.9,372.6,5036.7,341.6,4999.3,341.6
			L4999.3,341.6z M4999.3,497.2c-46.1,0-83.9-37.2-83.9-84.8c0-47.6,37.8-84.8,83.9-84.8c45.8,0,84.1,37.2,84.1,84.8
			C5083.4,460.1,5045.1,497.2,4999.3,497.2L4999.3,497.2z"/>
	</g>
</g>
</svg>
