<?xml version="1.0" encoding="utf-8"?>
<!-- Generator: Adobe Illustrator 18.1.1, SVG Export Plug-In . SVG Version: 6.00 Build 0)  -->
<svg version="1.1" id="Layer_1" xmlns="http://www.w3.org/2000/svg" xmlns:xlink="http://www.w3.org/1999/xlink" x="0px" y="0px"
	 viewBox="-241 333 128 128" enable-background="new -241 333 128 128" xml:space="preserve">
<circle fill="#0074E4" cx="-177" cy="397" r="64"/>
<g>
	<g>
		<path fill-rule="evenodd" clip-rule="evenodd" fill="#FFFFFF" d="M-217.4,431.6c3.4-1.5,35.7-12.1,65.5-13.8
			c0.6-2.5,3.9-10.7,4.5-13c-30.9,2.2-55.9,11.2-66,15.8L-217.4,431.6L-217.4,431.6z"/>
		<path fill-rule="evenodd" clip-rule="evenodd" fill="#FFFFFF" d="M-212.2,417.4c9.5-9.6,43.5-40.5,43.5-40.5
			c-17.7,4.1-36.2,9.6-42.8,12.5l-9.9,10.1c8.3-1.7,11-2.1,17-3L-212.2,417.4L-212.2,417.4z"/>
	</g>
	<path fill-rule="evenodd" clip-rule="evenodd" fill="#FFFFFF" d="M-169.1,356.3c-5.3,2.4-20.7,14.1-29,20.2
		c10.1-3.3,34.2-8.6,46.6-8.9C-155.3,365-166.2,357.7-169.1,356.3L-169.1,356.3z"/>
	<path fill-rule="evenodd" clip-rule="evenodd" fill="#FFFFFF" d="M-149.1,369.2c0,0-30,29.7-34.7,33.9c9.1-3.2,27.8-7.1,39.7-7.8
		c1.4-4.1,2.8-7.1,2.8-7.1l15.9-1.6C-125.4,386.7-137.5,377.1-149.1,369.2L-149.1,369.2z"/>
</g>
</svg>
